<svg width="222" height="207" viewBox="0 0 222 207" fill="none" xmlns="http://www.w3.org/2000/svg">
<path fill-rule="evenodd" clip-rule="evenodd" d="M110.993 13.1453L114.291 15.5261L117.099 14.1888V10.6986C113.826 8.11511 112.167 3.87519 110.993 0C109.82 3.87519 108.166 8.10498 104.888 10.6986V14.1888L107.685 15.5261L110.993 13.1453ZM110.993 14.8828L112.612 15.8959L116.477 166.071C114.411 167.394 112.571 169.041 111.029 170.949C109.469 169.037 107.612 167.389 105.53 166.066L109.4 15.8908L111.024 14.8777L110.993 14.8828ZM118.581 164.825C122.141 163.162 125.985 162.193 129.907 161.968C123.983 152.875 121.995 68.4162 116.846 15.9972L114.757 16.7115L118.581 164.825ZM103.365 164.825L107.19 16.7115L105.1 15.9972C99.9662 68.4314 97.9783 152.845 92.055 161.983C95.9769 162.208 99.8204 163.177 103.381 164.84L103.365 164.825ZM166.681 25.4952C179.923 33.0177 188.482 44.856 190.778 55.7218C194.901 75.4776 180.54 83.4104 174.794 87.5135C169.048 91.6167 154.925 97.893 149.73 113.622C152.173 89.4435 174.258 84.3678 175.745 60.5645C176.393 50.494 173.929 38.4581 166.64 25.4952H166.681ZM192.574 195.948C182.584 210.193 169.68 208.683 160.069 202.316C151.541 196.586 148.359 186.734 137.686 185.771C122.845 184.414 112.946 198.324 111.14 201.049L110.993 201.287L110.837 201.049C109.021 198.324 99.1316 184.414 84.2905 185.751C73.6174 186.719 70.4458 196.566 61.9175 202.295C52.3067 208.749 39.3624 210.213 29.4076 195.933C45.6499 203.425 62.7167 181.896 79.8998 178.512C72.2618 176.43 65.0688 169.597 55.5794 170.954C42.8628 172.773 38.0371 178.34 30.1461 179.394C20.7983 180.66 12.7151 175.417 7.43926 160.803C12.1536 165.033 21.1726 166.324 28.1278 164.531C32.6803 163.376 35.6142 161.32 41.4515 160.175C52.9642 157.921 63.6323 158.802 69.7174 169.045C68.5287 153.752 54.6234 133.048 29.3722 141.928C11.5618 148.205 -2.03499 136.007 0.251373 112.254C9.54353 127.719 22.5991 129.984 37.2682 127.547C49.0744 125.607 64.0774 132.496 67.1124 145.738C68.6299 136.113 66.0754 125.779 57.714 119.787C48.2499 112.994 40.8647 111.175 31.006 107.209C11.5618 99.4127 4.58636 78.6082 23.196 54.5668C22.8267 70.3209 25.0119 82.8228 48.7861 95.1474C65.2256 103.668 74.1081 119.706 71.2906 139.289C82.5706 113.566 74.017 98.6579 66.6774 89.4537C59.186 80.0823 50.43 67.6209 53.1413 51.2488C56.2117 32.7289 75.3979 17.4308 94.5538 11.737C60.0358 53.9437 81.0835 77.9598 84.5636 86.0648C86.5161 90.6542 96.4962 111.859 89.2122 128.368C84.0882 139.973 77.7501 143.311 75.5851 149.527C72.1707 159.531 78.6201 168.629 88.929 167.201C96.6581 166.147 108.914 172.773 110.973 177.945C113.027 172.793 125.288 166.117 133.017 167.201C143.326 168.609 149.776 159.567 146.351 149.527C144.237 143.311 137.904 139.973 132.775 128.368C125.506 111.859 135.501 90.6542 137.433 86.0648C140.883 77.9598 161.895 53.9437 127.443 11.737C146.624 17.4257 165.79 32.7239 168.861 51.2488C171.587 67.6209 162.821 80.1228 155.325 89.4537C147.96 98.6579 139.421 113.566 150.711 139.289C147.889 119.67 156.781 103.668 173.221 95.1474C196.995 82.8228 199.18 70.3259 198.796 54.5668C217.411 78.6082 210.43 99.4127 190.996 107.209C181.132 111.165 173.737 112.994 164.283 119.787C155.916 125.779 153.382 136.108 154.89 145.738C157.925 132.522 172.912 125.637 184.734 127.547C199.403 129.963 212.464 127.694 221.746 112.254C224.047 136.007 210.445 148.22 192.625 141.928C167.384 133.038 153.478 153.706 152.209 169.07C158.279 158.827 168.967 157.926 180.485 160.2C186.322 161.345 189.301 163.402 193.798 164.556C200.764 166.375 209.783 165.063 214.492 160.828C209.267 175.448 201.183 180.685 191.826 179.419C183.97 178.365 179.109 172.788 166.397 170.98C156.903 169.627 149.705 176.435 142.072 178.538C159.27 181.921 176.322 203.455 192.574 195.958V195.948ZM55.3062 25.4952C42.0534 33.0177 33.5048 44.856 31.1982 55.7218C27.0757 75.4776 41.4464 83.4104 47.1876 87.5135C52.9288 91.6167 67.0567 97.893 72.2466 113.622C69.8085 89.4435 47.7188 84.3678 46.2316 60.5645C45.5943 50.494 48.0475 38.4581 55.3366 25.4952H55.3062ZM60.1369 128.373C57.4105 122.699 42.6048 115.233 33.2266 113.439C21.1372 111.135 8.05638 101.788 6.67545 84.9402C0.716741 100.178 3.27626 108.424 6.91826 112.801C10.5603 117.178 16.4684 121.342 25.2294 122.542C30.6014 123.251 51.1837 119.169 60.1369 128.373ZM62.3424 157.89C56.5405 144.765 42.6149 145.039 37.4048 145.348C30.6064 145.758 27.5562 148.63 20.2065 148.63C12.8567 148.63 5.23889 144.684 2.24941 141.402C3.38754 150.96 8.31941 155.955 15.5579 158.493C24.3493 161.618 29.9337 157.48 40.9153 155.023C51.8969 152.566 58.756 153.351 62.3323 157.89H62.3424ZM70.9921 178.386C65.1111 175.78 58.5479 175.142 52.2763 176.567C43.0145 178.674 33.1963 189.074 18.4917 181.521C22.068 188.871 26.838 192.275 34.7138 192.62C42.5896 192.964 49.4538 187.646 51.2748 186.389C57.0666 182.113 63.8375 179.361 70.9668 178.386H70.9921ZM150.985 178.386C158.114 179.36 164.886 182.112 170.677 186.389C172.493 187.646 179.387 193.02 187.263 192.666C195.139 192.311 199.909 188.897 203.495 181.552C188.75 189.079 178.972 178.705 169.726 176.592C163.443 175.177 156.872 175.824 150.985 178.436V178.386ZM159.655 157.89C163.236 153.331 170.095 152.576 181.077 155.023C192.058 157.47 197.643 161.608 206.424 158.493C213.647 155.915 218.594 150.96 219.732 141.402C216.753 144.684 209.11 148.63 201.775 148.63C194.441 148.63 191.385 145.758 184.577 145.348C179.392 145.039 165.451 144.765 159.644 157.89H159.655ZM161.865 128.373C170.808 119.179 191.391 123.251 196.768 122.527C205.539 121.327 211.437 117.147 215.084 112.786C218.731 108.424 221.29 100.178 215.321 84.925C213.951 101.778 200.86 111.124 188.77 113.424C179.382 115.258 164.591 122.715 161.85 128.373H161.865Z" fill="#1E1E1E"/>
</svg>
